<?xml version="1.0" standalone="no"?>
<!DOCTYPE svg PUBLIC "-//W3C//DTD SVG 20010904//EN"
 "http://www.w3.org/TR/2001/REC-SVG-20010904/DTD/svg10.dtd">
<svg version="1.0" xmlns="http://www.w3.org/2000/svg"
 width="1280.000000pt" height="1280.000000pt" viewBox="0 0 1280.000000 1280.000000"
 preserveAspectRatio="xMidYMid meet">
<metadata>
Created by potrace 1.15, written by Peter Selinger 2001-2017
</metadata>
<g transform="translate(0.000000,1280.000000) scale(0.100000,-0.100000)"
fill="#ffffff" stroke="none">
<path d="M5035 12241 c-215 -6 -221 -7 -265 -33 -27 -15 -54 -42 -68 -66 -22
-39 -22 -46 -22 -378 0 -187 9 -1126 20 -2089 11 -962 29 -2578 40 -3590 11
-1012 27 -2461 36 -3220 l15 -1380 23 -50 c13 -27 143 -268 290 -535 175 -318
278 -496 300 -517 71 -66 -59 -73 1521 82 138 14 433 43 658 65 263 25 417 45
435 54 36 19 78 64 93 101 11 28 24 818 53 3340 3 303 13 1101 21 1775 8 674
24 1997 35 2940 11 943 25 2076 30 2518 8 639 8 812 -2 845 -18 59 -82 121
-140 135 -35 9 -408 11 -1450 10 -772 -1 -1502 -4 -1623 -7z"/>
</g>
</svg>
